<svg width="31" height="37" viewBox="0 0 31 37" fill="none" xmlns="http://www.w3.org/2000/svg">
<path fill-rule="evenodd" clip-rule="evenodd" d="M29.9481 19.173C30.1515 19.3878 30.3129 19.643 30.423 19.9239C30.5332 20.2048 30.5898 20.506 30.5898 20.8101C30.5898 21.1142 30.5332 21.4154 30.423 21.6963C30.3129 21.9772 30.1515 22.2324 29.9481 22.4472L16.8413 36.3207C16.6384 36.536 16.3973 36.7069 16.132 36.8234C15.8666 36.94 15.582 37 15.2947 37C15.0074 37 14.7229 36.94 14.4575 36.8234C14.1921 36.7069 13.951 36.536 13.7481 36.3207L0.641359 22.4472C0.231176 22.013 0.000739923 21.4241 0.00073995 20.8101C0.000739977 20.1961 0.231176 19.6072 0.641359 19.173C1.05154 18.7388 1.60787 18.4949 2.18796 18.4949C2.76804 18.4949 3.32437 18.7388 3.73456 19.173L15.2947 31.4141L26.8549 19.173C27.0578 18.9577 27.2989 18.7869 27.5642 18.6703C27.8296 18.5537 28.1141 18.4937 28.4015 18.4937C28.6888 18.4937 28.9733 18.5537 29.2387 18.6703C29.5041 18.7869 29.7452 18.9577 29.9481 19.173Z" fill="#4CE9B1"/>
<path fill-rule="evenodd" clip-rule="evenodd" d="M15.2941 -9.54858e-08C15.8734 -7.01614e-08 16.429 0.243612 16.8387 0.677244C17.2484 1.11088 17.4785 1.69901 17.4785 2.31225L17.4785 32.3716C17.4785 32.9848 17.2484 33.5729 16.8387 34.0066C16.429 34.4402 15.8734 34.6838 15.2941 34.6838C14.7147 34.6838 14.1591 34.4402 13.7494 34.0066C13.3397 33.5729 13.1096 32.9848 13.1096 32.3716L13.1096 2.31225C13.1096 1.69901 13.3397 1.11088 13.7494 0.677244C14.1591 0.243612 14.7147 -1.2081e-07 15.2941 -9.54858e-08Z" fill="#4CE9B1"/>
</svg>
