<svg width="26" height="23" viewBox="0 0 26 23" fill="none" xmlns="http://www.w3.org/2000/svg">
<path d="M10.5625 5.95312C10.3086 5.95312 10.1055 5.90234 9.95312 5.75C9.80078 5.59766 9.75 5.39453 9.75 5.14062V3.10938C9.75 2.90625 9.80078 2.70312 9.95312 2.55078C10.1055 2.39844 10.3086 2.29688 10.5625 2.29688H25.1875C25.3906 2.29688 25.5938 2.39844 25.7461 2.55078C25.8984 2.70312 26 2.90625 26 3.10938V5.14062C26 5.39453 25.8984 5.59766 25.7461 5.75C25.5938 5.90234 25.3906 5.95312 25.1875 5.95312H10.5625ZM10.5625 14.0781C10.3086 14.0781 10.1055 14.0273 9.95312 13.875C9.80078 13.7227 9.75 13.5195 9.75 13.2656V11.2344C9.75 11.0312 9.80078 10.8281 9.95312 10.6758C10.1055 10.5234 10.3086 10.4219 10.5625 10.4219H25.1875C25.3906 10.4219 25.5938 10.5234 25.7461 10.6758C25.8984 10.8281 26 11.0312 26 11.2344V13.2656C26 13.5195 25.8984 13.7227 25.7461 13.875C25.5938 14.0273 25.3906 14.0781 25.1875 14.0781H10.5625ZM10.5625 22.2031C10.3086 22.2031 10.1055 22.1523 9.95312 22C9.80078 21.8477 9.75 21.6445 9.75 21.3906V19.3594C9.75 19.1562 9.80078 18.9531 9.95312 18.8008C10.1055 18.6484 10.3086 18.5469 10.5625 18.5469H25.1875C25.3906 18.5469 25.5938 18.6484 25.7461 18.8008C25.8984 18.9531 26 19.1562 26 19.3594V21.3906C26 21.6445 25.8984 21.8477 25.7461 22C25.5938 22.1523 25.3906 22.2031 25.1875 22.2031H10.5625ZM3.25 17.9375C3.91016 17.9375 4.46875 18.1914 4.97656 18.6484C5.43359 19.1562 5.6875 19.7148 5.6875 20.375C5.6875 21.0859 5.43359 21.6445 4.97656 22.1016C4.46875 22.6094 3.91016 22.8125 3.25 22.8125C2.53906 22.8125 1.98047 22.6094 1.47266 22.1016C0.964844 21.6445 0.761719 21.0859 0.761719 20.375C0.761719 19.7148 0.964844 19.1562 1.47266 18.6484C1.98047 18.1914 2.53906 17.9375 3.25 17.9375ZM7.97266 2.75391H7.92188C8.02344 2.65234 8.125 2.5 8.125 2.34766C8.125 2.19531 8.07422 2.04297 7.97266 1.89062L7.10938 1.02734C6.95703 0.925781 6.80469 0.875 6.65234 0.875C6.44922 0.875 6.34766 0.925781 6.24609 1.02734L2.99609 4.27734L1.82812 3.16016C1.72656 3.05859 1.57422 2.95703 1.42188 2.95703C1.21875 2.95703 1.06641 3.05859 0.964844 3.16016L0.152344 3.92188C0.0507812 4.07422 0 4.22656 0 4.37891C0 4.58203 0.0507812 4.68359 0.203125 4.78516L2.58984 7.22266C2.69141 7.32422 2.84375 7.375 3.04688 7.375C3.19922 7.375 3.35156 7.32422 3.50391 7.22266L4.26562 6.41016L7.97266 2.75391ZM7.97266 10.8789H7.92188C8.02344 10.7773 8.125 10.625 8.125 10.4219C8.125 10.2695 8.07422 10.1172 7.97266 10.0156L7.10938 9.15234C6.95703 9.05078 6.80469 8.94922 6.65234 8.94922C6.44922 8.94922 6.34766 9.05078 6.24609 9.15234L2.99609 12.3516L1.82812 11.2344C1.72656 11.1328 1.57422 11.082 1.42188 11.082C1.21875 11.082 1.06641 11.1328 0.964844 11.2344L0.152344 12.0469C0.0507812 12.1992 0 12.3516 0 12.5039C0 12.6562 0.0507812 12.8086 0.203125 12.9102L2.58984 15.2969C2.69141 15.4492 2.84375 15.5 3.04688 15.5C3.19922 15.5 3.35156 15.4492 3.50391 15.2969L4.26562 14.5352L7.97266 10.8789Z" fill="#438CF2"/>
</svg>
