<svg width="26" height="26" viewBox="0 0 26 26" fill="none" xmlns="http://www.w3.org/2000/svg">
<path d="M13 0.65625C15.2344 0.65625 17.3672 1.26562 19.2969 2.38281C21.2266 3.5 22.75 5.02344 23.8672 6.95312C24.9844 8.88281 25.5938 11.0156 25.5938 13.25C25.5938 15.5352 24.9844 17.6172 23.8672 19.5469C22.75 21.4766 21.2266 23.0508 19.2969 24.168C17.3672 25.2852 15.2344 25.8438 13 25.8438C10.7148 25.8438 8.63281 25.2852 6.70312 24.168C4.77344 23.0508 3.19922 21.4766 2.08203 19.5469C0.964844 17.6172 0.40625 15.5352 0.40625 13.25C0.40625 11.0156 0.964844 8.88281 2.08203 6.95312C3.19922 5.02344 4.77344 3.5 6.70312 2.38281C8.63281 1.26562 10.7148 0.65625 13 0.65625ZM15.8945 18.4297C15.9961 18.5312 16.1484 18.582 16.3516 18.5312C16.5039 18.5312 16.6562 18.4297 16.7578 18.2773L18.1797 16.3477C18.2812 16.2461 18.2812 16.0938 18.2812 15.8906C18.2812 15.7383 18.1797 15.5859 18.0781 15.4844L14.8281 13.1484V6.14062C14.8281 5.98828 14.7266 5.83594 14.625 5.73438C14.5234 5.63281 14.3711 5.53125 14.2188 5.53125H11.7812C11.5781 5.53125 11.4258 5.63281 11.3242 5.73438C11.2227 5.83594 11.1719 5.98828 11.1719 6.14062V14.6719C11.1719 14.875 11.2227 15.0781 11.4258 15.1797L15.8945 18.4297Z" fill="#438CF2"/>
</svg>
