<svg width="26" height="27" viewBox="0 0 26 27" fill="none" xmlns="http://www.w3.org/2000/svg">
<path d="M9.75 10.8125V16.5C9.75 16.957 9.54688 17.3633 9.24219 17.668C8.9375 17.9727 8.53125 18.125 8.125 18.125H7.3125C6.39844 18.125 5.58594 17.8203 4.97656 17.2109C4.36719 16.6016 4.0625 15.7891 4.0625 14.875V12.4375C4.0625 11.5234 4.36719 10.7617 4.97656 10.1523C5.58594 9.54297 6.39844 9.1875 7.3125 9.1875H8.125C8.53125 9.1875 8.9375 9.39062 9.24219 9.69531C9.54688 10 9.75 10.4062 9.75 10.8125ZM18.6875 18.125H17.875C17.418 18.125 17.0117 17.9727 16.707 17.668C16.4023 17.3633 16.25 16.957 16.25 16.5V10.8125C16.25 10.4062 16.4023 10 16.707 9.69531C17.0117 9.39062 17.418 9.1875 17.875 9.1875H18.6875C19.6016 9.1875 20.3633 9.54297 20.9727 10.1523C21.582 10.7617 21.9375 11.5234 21.9375 12.4375V14.875C21.9375 15.7891 21.582 16.6016 20.9727 17.2109C20.3633 17.8203 19.6016 18.125 18.6875 18.125ZM13 0.25C15.3359 0.25 17.5195 0.859375 19.5508 2.07812C21.4297 3.24609 22.9531 4.82031 24.1211 6.80078C25.2891 8.83203 25.8984 10.9648 26 13.25V21.6797C26 22.9492 25.543 24.0156 24.6289 24.9297C23.7148 25.8438 22.6484 26.25 21.4297 26.25H12.1875C11.4766 26.25 10.918 26.0469 10.4609 25.5391C9.95312 25.082 9.75 24.5234 9.75 23.8125C9.75 23.1523 9.95312 22.5938 10.4609 22.0859C10.918 21.6289 11.4766 21.375 12.1875 21.375H13.8125C14.4727 21.375 15.0312 21.6289 15.5391 22.0859C15.9961 22.5938 16.25 23.1523 16.25 23.8125H21.4297C21.9883 23.8125 22.4961 23.6094 22.9023 23.2031C23.3086 22.7969 23.5625 22.2891 23.5625 21.6797V13.25C23.5625 11.3711 23.0547 9.59375 22.1406 7.96875C21.1758 6.34375 19.9062 5.07422 18.2812 4.10938C16.6562 3.19531 14.8789 2.6875 13 2.6875C11.0703 2.6875 9.34375 3.19531 7.71875 4.10938C6.09375 5.07422 4.77344 6.34375 3.85938 7.96875C2.89453 9.59375 2.4375 11.3711 2.4375 13.25V14.0625C2.4375 14.3164 2.33594 14.5195 2.18359 14.6719C2.03125 14.8242 1.82812 14.875 1.625 14.875H0.8125C0.558594 14.875 0.355469 14.8242 0.203125 14.6719C0.0507812 14.5195 0 14.3164 0 14.0625V13.25C0.0507812 10.9648 0.660156 8.83203 1.82812 6.80078C2.99609 4.82031 4.51953 3.24609 6.44922 2.07812C8.42969 0.859375 10.6133 0.25 13 0.25Z" fill="#438CF2"/>
</svg>
