<svg width="26" height="27" viewBox="0 0 26 27" fill="none" xmlns="http://www.w3.org/2000/svg">
<path d="M0 20.8164C1.01562 21.5273 2.38672 22.0859 4.21484 22.4922C5.89062 22.8477 7.71875 23 9.75 23C11.7305 23 13.5586 22.8477 15.2852 22.4922C17.0625 22.0859 18.4844 21.5273 19.5 20.8164V23C19.5 23.6094 19.043 24.1172 18.1797 24.625C17.2656 25.1328 16.0977 25.5391 14.625 25.8438C13.1016 26.1484 11.4766 26.25 9.75 26.25C7.97266 26.25 6.34766 26.1484 4.875 25.8438C3.35156 25.5391 2.18359 25.1328 1.32031 24.625C0.40625 24.1172 0 23.6094 0 23V20.8164ZM16.25 6.75C14.4727 6.75 12.8477 6.64844 11.375 6.34375C9.85156 6.03906 8.68359 5.63281 7.82031 5.125C6.90625 4.61719 6.5 4.10938 6.5 3.5C6.5 2.94141 6.90625 2.38281 7.82031 1.875C8.68359 1.36719 9.85156 1.01172 11.375 0.707031C12.8477 0.402344 14.4727 0.25 16.25 0.25C17.9766 0.25 19.6016 0.402344 21.125 0.707031C22.5977 1.01172 23.7656 1.36719 24.6797 1.875C25.543 2.38281 26 2.94141 26 3.5C26 4.10938 25.543 4.61719 24.6797 5.125C23.7656 5.63281 22.5977 6.03906 21.125 6.34375C19.6016 6.64844 17.9766 6.75 16.25 6.75ZM0 15.4844C1.01562 16.3477 2.38672 17.0078 4.21484 17.4648C5.94141 17.9219 7.76953 18.125 9.75 18.125C11.6797 18.125 13.5586 17.9219 15.2852 17.4648C17.0625 17.0078 18.4844 16.3477 19.5 15.4844V18.125C19.5 18.7344 19.043 19.2422 18.1797 19.75C17.2656 20.2578 16.0977 20.6641 14.625 20.9688C13.1016 21.2734 11.4766 21.375 9.75 21.375C7.97266 21.375 6.34766 21.2734 4.875 20.9688C3.35156 20.6641 2.18359 20.2578 1.32031 19.75C0.40625 19.2422 0 18.7344 0 18.125V15.4844ZM21.125 16.043V12.8438C23.2578 12.4883 24.8828 11.8789 26 11.0664V13.25C26 13.8594 25.543 14.3672 24.6797 14.875C23.7656 15.3828 22.5977 15.7891 21.125 16.043ZM9.75 8.375C11.4766 8.375 13.1016 8.57812 14.625 8.93359C16.0977 9.33984 17.2656 9.79688 18.1797 10.4062C19.043 11.0156 19.5 11.7266 19.5 12.4375C19.5 13.1992 19.043 13.8594 18.1797 14.4688C17.2656 15.0781 16.0977 15.5859 14.625 15.9414C13.1016 16.3477 11.4766 16.5 9.75 16.5C7.97266 16.5 6.34766 16.3477 4.875 15.9414C3.35156 15.5859 2.18359 15.0781 1.32031 14.4688C0.40625 13.8594 0 13.1992 0 12.4375C0 11.7266 0.40625 11.0156 1.32031 10.4062C2.18359 9.79688 3.35156 9.33984 4.875 8.93359C6.34766 8.57812 7.97266 8.375 9.75 8.375ZM20.8711 11.2188C20.4648 10.1016 19.4492 9.13672 17.8242 8.32422C19.5508 8.27344 21.0742 8.07031 22.4453 7.66406C23.918 7.30859 25.0859 6.80078 26 6.19141V8.375C26 8.98438 25.4922 9.54297 24.5781 10.0508C23.6641 10.5586 22.3945 10.9648 20.8711 11.2188Z" fill="#438CF2"/>
</svg>
