<svg width="20" height="21" viewBox="0 0 20 21" fill="none" xmlns="http://www.w3.org/2000/svg">
<path d="M14.5668 20.932H14.5948C15.1228 20.932 15.6218 20.7242 15.9998 20.3467L18.712 17.638C18.8049 17.5454 18.8786 17.4353 18.929 17.3141C18.9793 17.193 19.0052 17.0631 19.0052 16.9319C19.0052 16.8007 18.9793 16.6708 18.929 16.5497C18.8786 16.4285 18.8049 16.3184 18.712 16.2258L14.7118 12.2307C14.619 12.1379 14.5088 12.0642 14.3875 12.014C14.2662 11.9637 14.1361 11.9379 14.0048 11.9379C13.8734 11.9379 13.7434 11.9637 13.6221 12.014C13.5007 12.0642 13.3905 12.1379 13.2977 12.2307L11.7037 13.8227C10.9646 13.603 9.58559 13.1036 8.71156 12.2307C7.83752 11.3578 7.3375 9.98049 7.11749 9.2424L8.71156 7.65037C8.80451 7.5577 8.87825 7.44763 8.92856 7.32646C8.97887 7.2053 9.00477 7.07541 9.00477 6.94424C9.00477 6.81307 8.97887 6.68319 8.92856 6.56202C8.87825 6.44086 8.80451 6.33079 8.71156 6.23812L4.7114 2.24305C4.52022 2.06283 4.26727 1.96243 4.00437 1.96243C3.74148 1.96243 3.48853 2.06283 3.29735 2.24305L0.586239 4.95171C0.206225 5.33124 -0.00778376 5.85259 0.000216553 6.38493C0.0232175 7.80718 0.400232 12.7471 4.29838 16.6403C8.19654 20.5334 13.1427 20.909 14.5668 20.932ZM4.00537 4.36144L6.59147 6.94424L5.29842 8.23565C5.18075 8.35284 5.09431 8.49758 5.04698 8.65668C4.99964 8.81577 4.99292 8.98417 5.02741 9.14652C5.05141 9.26138 5.63844 11.985 7.2985 13.643C8.95857 15.3009 11.6857 15.8872 11.8007 15.9112C11.9632 15.9458 12.1319 15.9392 12.2912 15.8919C12.4506 15.8446 12.5955 15.7582 12.7127 15.6405L14.0058 14.3491L16.5919 16.9319L14.5858 18.9344C13.3377 18.9135 9.06757 18.5789 5.71244 15.227C2.34631 11.8652 2.0203 7.58545 2.00029 6.36396L4.00537 4.36144ZM17.9999 9.94553H20C20 4.82187 16.1268 0.957642 10.9896 0.957642V2.95517C15.0518 2.95517 17.9999 5.89454 17.9999 9.94553Z" fill="white"/>
</svg>
