<svg width="23" height="19" viewBox="0 0 23 19" fill="none" xmlns="http://www.w3.org/2000/svg">
<path fill-rule="evenodd" clip-rule="evenodd" d="M11.918 0.398624C12.0515 0.272266 12.2099 0.172014 12.3844 0.103611C12.5589 0.0352085 12.746 0 12.9349 0C13.1238 0 13.3109 0.0352085 13.4853 0.103611C13.6598 0.172014 13.8183 0.272266 13.9517 0.398624L22.5691 8.5397C22.7028 8.66574 22.8089 8.81547 22.8813 8.98032C22.9537 9.14516 22.991 9.32188 22.991 9.50035C22.991 9.67882 22.9537 9.85554 22.8813 10.0204C22.8089 10.1852 22.7028 10.335 22.5691 10.461L13.9517 18.6021C13.682 18.8569 13.3163 19 12.9349 19C12.5535 19 12.1877 18.8569 11.918 18.6021C11.6484 18.3473 11.4968 18.0017 11.4968 17.6414C11.4968 17.2811 11.6484 16.9356 11.918 16.6808L19.5214 9.50035L11.918 2.31992C11.7843 2.19388 11.6782 2.04415 11.6058 1.87931C11.5334 1.71446 11.4961 1.53774 11.4961 1.35927C11.4961 1.1808 11.5334 1.00408 11.6058 0.839236C11.6782 0.674393 11.7843 0.524663 11.918 0.398624Z" fill="#0D144A"/>
<path fill-rule="evenodd" clip-rule="evenodd" d="M0.00976563 9.50043C0.00976562 9.14057 0.161082 8.79545 0.430426 8.541C0.699771 8.28654 1.06508 8.14359 1.44599 8.14359L20.1169 8.14359C20.4978 8.14359 20.8631 8.28654 21.1325 8.541C21.4018 8.79545 21.5531 9.14057 21.5531 9.50043C21.5531 9.86029 21.4018 10.2054 21.1325 10.4599C20.8631 10.7143 20.4978 10.8573 20.1169 10.8573L1.44599 10.8573C1.06508 10.8573 0.699771 10.7143 0.430426 10.4599C0.161082 10.2054 0.00976562 9.86029 0.00976563 9.50043Z" fill="#0D144A"/>
</svg>
