<svg width="20" height="21" viewBox="0 0 20 21" fill="none" xmlns="http://www.w3.org/2000/svg">
<path d="M12.25 13.0371L11.11 13.7962C10.7813 14.0151 10.3951 14.132 10 14.132C9.6049 14.132 9.21866 14.0151 8.89 13.7962L7.75 13.0371M1 17.5313V8.61282C0.999951 8.28405 1.08116 7.96036 1.23641 7.67046C1.39166 7.38056 1.61617 7.13342 1.89 6.95095L8.89 2.29095C9.21866 2.07195 9.6049 1.95508 10 1.95508C10.3951 1.95508 10.7813 2.07195 11.11 2.29095L18.11 6.95095C18.3838 7.13342 18.6083 7.38056 18.7636 7.67046C18.9188 7.96036 19 8.28405 19 8.61282V17.5313H1ZM1 17.5313C1 18.0611 1.21071 18.5692 1.58579 18.9437C1.96086 19.3183 2.46957 19.5288 3 19.5288H17C17.5304 19.5288 18.0391 19.3183 18.4142 18.9437C18.7893 18.5692 19 18.0611 19 17.5313H1ZM1 17.5313L7.75 13.0371L1 17.5313ZM19 17.5313L12.25 13.0371L19 17.5313ZM1 8.54291L7.75 13.0371L1 8.54291ZM19 8.54291L12.25 13.0371L19 8.54291Z" stroke="#4CE9B1" stroke-width="2" stroke-linecap="round" stroke-linejoin="round"/>
</svg>
